<svg width="220" height="49" viewBox="0 0 220 49" fill="none" xmlns="http://www.w3.org/2000/svg">
<path d="M45.1504 9.90313C44.4126 6.13787 40.3546 4.74524 37.5614 4.22945C37.7195 4.79681 37.7722 5.3126 37.7722 5.93155C37.7722 7.11787 37.456 8.2526 36.929 9.28418C38.51 9.64524 39.933 10.2642 40.0384 10.8831C40.0911 11.2442 40.0384 11.4505 39.8803 11.6052C38.9844 12.6884 35.9804 13.4105 33.7669 13.4105H26.8104C24.5969 13.4105 21.593 12.6884 20.697 11.6052C20.5389 11.3989 20.4335 11.2442 20.5389 10.8831C20.6443 10.2126 22.0673 9.64524 23.6483 9.28418C23.1213 8.30418 22.8051 7.16945 22.8051 5.93155C22.8051 5.36418 22.8578 4.79681 23.0159 4.22945C20.2227 4.74524 16.1647 6.13787 15.4269 9.90313C15.058 11.7084 15.5323 13.4105 16.6918 14.8031C18.4836 16.9179 21.4876 17.7947 23.8064 18.1558C23.1213 20.0126 21.8038 23.8294 20.8024 27.1305C18.062 27.0789 13.2662 26.9758 11.4743 27.0273C10.473 27.0273 9.52439 27.44 8.78658 28.1621C7.15284 29.8126 6.30962 34.1452 6.30962 41.0568L1.61921 43.4295C0.14358 44.1516 -0.436133 45.9568 0.354385 47.401C0.881397 48.4326 1.93542 49 3.04215 49C3.51646 49 3.99077 48.8968 4.41238 48.6389L25.8618 37.7042C28.6022 36.5179 30.1306 34.9189 30.763 33.32C31.9751 30.4831 34.821 21.6116 35.875 18.2589C38.1938 18.001 41.7775 17.1758 43.8329 14.8031C45.045 13.4105 45.4666 11.7084 45.1504 9.90313ZM12.4757 37.9621C12.5811 35.8473 12.7919 34.0421 13.0554 32.9073C15.7958 32.9589 20.4335 33.0105 22.0673 33.0621L12.4757 37.9621Z" fill="url(#paint0_linear_80_505)"/>
<path d="M30.2887 11.8632C33.6359 11.8632 36.3493 9.2075 36.3493 5.93158C36.3493 2.65566 33.6359 0 30.2887 0C26.9415 0 24.2281 2.65566 24.2281 5.93158C24.2281 9.2075 26.9415 11.8632 30.2887 11.8632Z" fill="url(#paint1_linear_80_505)"/>
<path d="M57.0945 33.8222V8.14897H66.1321C71.1104 8.14897 73.8676 11.1098 73.8676 14.7828C73.8676 17.0315 72.5656 19.3178 70.3445 20.4047C73.791 20.9669 75.6674 23.5154 75.6674 26.4388C75.6674 30.6365 72.5273 33.8222 68.0851 33.8222H57.0945ZM66.247 9.98545H59.1242V19.805H66.0938C69.9998 19.805 71.838 17.5562 71.838 14.8952C71.838 12.2342 69.9233 9.98545 66.247 9.98545ZM67.9702 21.6415H59.1242V31.9857H67.817C71.838 31.9857 73.6378 29.4746 73.6378 26.5887C73.6378 23.9277 71.7614 21.6415 67.9702 21.6415ZM79.9947 10.1354H78.1183V8.14897H79.9947V10.1354ZM79.9947 33.8222H78.1183V15.0826H79.9947V33.8222ZM91.33 14.7828C95.8104 14.7828 98.7591 17.7436 98.7591 22.3536V33.8222H96.8827V22.5785C96.8827 18.7931 94.7382 16.5443 91.1385 16.5443C87.3856 16.5443 84.9348 19.0179 84.9348 23.1032V33.8222H83.0583V15.0826H84.9348V17.931C86.0453 16.2445 87.9983 14.7828 91.33 14.7828ZM111.013 16.5443C106.495 16.5443 103.125 19.9174 103.125 24.265C103.125 28.5751 106.495 31.9483 111.013 31.9483C115.456 31.9483 118.902 28.725 118.902 24.265C118.902 19.7675 115.456 16.5443 111.013 16.5443ZM111.205 40.7933C106.916 40.7933 104.12 38.9569 102.359 36.1084L103.814 35.134C105.308 37.5327 107.414 38.9943 111.205 38.9943C115.877 38.9943 118.787 36.7456 118.787 32.3605V29.737C117.447 31.7609 114.843 33.7098 110.899 33.7098C105.499 33.7098 101.248 29.5871 101.248 24.2275C101.248 18.9055 105.499 14.7828 110.899 14.7828C114.651 14.7828 117.294 16.5068 118.787 18.7181V15.0826H120.664V32.3605C120.664 37.0454 117.217 40.7933 111.205 40.7933ZM141.955 29.3997C140.194 32.2481 137.398 34.0846 133.109 34.0846C127.327 34.0846 123.153 29.8869 123.153 24.4149C123.153 18.9805 127.365 14.7828 132.956 14.7828C138.662 14.7828 142.645 19.0554 142.645 23.8528C142.645 24.4524 142.607 24.8647 142.568 25.0896H125.144C125.451 29.662 128.974 32.2856 133.109 32.2856C136.901 32.2856 139.007 30.8239 140.5 28.4252L141.955 29.3997ZM132.956 16.5443C129.05 16.5443 125.604 19.2053 125.144 23.403H140.692C140.309 19.1679 136.901 16.5443 132.956 16.5443ZM145.517 33.8222V8.14897H154.554C159.533 8.14897 162.29 11.1098 162.29 14.7828C162.29 17.0315 160.988 19.3178 158.767 20.4047C162.213 20.9669 164.09 23.5154 164.09 26.4388C164.09 30.6365 160.95 33.8222 156.507 33.8222H145.517ZM154.669 9.98545H147.547V19.805H154.516C158.422 19.805 160.26 17.5562 160.26 14.8952C160.26 12.2342 158.346 9.98545 154.669 9.98545ZM156.393 21.6415H147.547V31.9857H156.239C160.26 31.9857 162.06 29.4746 162.06 26.5887C162.06 23.9277 160.184 21.6415 156.393 21.6415ZM175.846 14.7828C181.399 14.7828 185.688 18.9805 185.688 24.4149C185.688 29.8869 181.399 34.0846 175.846 34.0846C170.255 34.0846 165.966 29.8869 165.966 24.4149C165.966 18.9805 170.255 14.7828 175.846 14.7828ZM175.846 16.5443C171.251 16.5443 167.843 19.9924 167.843 24.4524C167.843 28.875 171.251 32.3231 175.846 32.3231C180.403 32.3231 183.812 28.875 183.812 24.4524C183.812 19.9924 180.403 16.5443 175.846 16.5443ZM187.603 28.1254H189.517C189.862 30.7864 191.968 32.3605 195.606 32.3605C199.129 32.3605 200.968 30.9363 200.968 28.6876C200.968 22.9907 188.33 27.3008 188.33 19.9549C188.33 16.8816 190.973 14.7828 195.07 14.7828C199.321 14.7828 202.04 16.9566 202.27 20.3297H200.393C200.202 18.3808 198.593 16.5068 195.032 16.5068C192.007 16.5068 190.245 17.8561 190.245 19.88C190.245 25.3894 202.844 21.1542 202.844 28.6126C202.844 31.7983 200.163 34.122 195.568 34.122C190.934 34.122 188.062 32.0607 187.603 28.1254ZM204.759 28.1254H206.673C207.018 30.7864 209.124 32.3605 212.762 32.3605C216.285 32.3605 218.124 30.9363 218.124 28.6876C218.124 22.9907 205.486 27.3008 205.486 19.9549C205.486 16.8816 208.129 14.7828 212.226 14.7828C216.477 14.7828 219.196 16.9566 219.426 20.3297H217.549C217.358 18.3808 215.749 16.5068 212.188 16.5068C209.163 16.5068 207.401 17.8561 207.401 19.88C207.401 25.3894 220 21.1542 220 28.6126C220 31.7983 217.319 34.122 212.724 34.122C208.09 34.122 205.218 32.0607 204.759 28.1254Z" fill="url(#paint2_linear_80_505)"/>
<defs>
<linearGradient id="paint0_linear_80_505" x1="0" y1="4.22945" x2="45.2515" y2="4.22945" gradientUnits="userSpaceOnUse">
<stop stop-color="#EF4136"/>
<stop offset="1" stop-color="#FBB040"/>
</linearGradient>
<linearGradient id="paint1_linear_80_505" x1="24.2281" y1="0" x2="36.3493" y2="0" gradientUnits="userSpaceOnUse">
<stop stop-color="#EF4136"/>
<stop offset="1" stop-color="#FBB040"/>
</linearGradient>
<linearGradient id="paint2_linear_80_505" x1="57.0945" y1="8.14897" x2="220" y2="8.14897" gradientUnits="userSpaceOnUse">
<stop stop-color="#EF4136"/>
<stop offset="1" stop-color="#FBB040"/>
</linearGradient>
</defs>
</svg>

